<?xml version="1.0" encoding="utf-8"?>
<!-- Generator: Adobe Illustrator 23.0.2, SVG Export Plug-In . SVG Version: 6.00 Build 0)  -->
<svg version="1.1" id="Logo" xmlns="http://www.w3.org/2000/svg" xmlns:xlink="http://www.w3.org/1999/xlink" x="0px" y="0px"
	 viewBox="0 0 1920 1080" style="enable-background:new 0 0 1920 1080;" xml:space="preserve">
<style type="text/css">
	.st0{display:none;}
	.st1{display:inline;}
	.st2{font-family:'ArialMT';}
	.st3{font-size:17.682px;}
	.st4{display:inline;fill:none;stroke:#0000FF;stroke-width:2;stroke-miterlimit:10;}
	.st5{display:inline;opacity:0.5;}
	.st6{fill:none;stroke:#0000FF;stroke-width:2;stroke-miterlimit:10;}
	.st7{fill:none;stroke:#0000FF;stroke-width:2;stroke-miterlimit:10;stroke-dasharray:12.2775,12.2775;}
	.st8{fill:none;stroke:#0000FF;stroke-width:2;stroke-miterlimit:10;stroke-dasharray:11.9202,11.9202;}
	.st9{opacity:0.5;}
	.st10{fill:none;stroke:#0000FF;stroke-width:2;stroke-miterlimit:10;stroke-dasharray:11.9235,11.9235;}
	.st11{fill:none;stroke:#0000FF;stroke-width:2;stroke-miterlimit:10;stroke-dasharray:11.8739,11.8739;}
	.st12{fill:none;stroke:#0000FF;stroke-width:2;stroke-miterlimit:10;stroke-dasharray:11.8895,11.8895;}
	.st13{fill:none;stroke:#0000FF;stroke-width:2;stroke-miterlimit:10;stroke-dasharray:12.1919,12.1919;}
	.st14{opacity:0.5;fill:none;stroke:#0000FF;stroke-width:2;stroke-miterlimit:10;stroke-dasharray:12;}
	.st15{fill:#0000FF;}
	.st16{fill:#0033FF;}
	.st17{fill:#0066FF;}
	.st18{fill:#0099FF;}
	.st19{fill:#00CCFF;}
</style>
<g id="Grid" class="st0">
	<text transform="matrix(1 0 0 1 645.0212 676.8193)" class="st1 st2 st3">43ยบ</text>
	<line class="st4" x1="673.8" y1="633.2" x2="673.8" y2="708.8"/>
	<text transform="matrix(1 0 0 1 1218.031 501.9317)" class="st1 st2 st3">43ยบ</text>
	<line class="st4" x1="1214.2" y1="458.3" x2="1214.2" y2="533.9"/>
	<g id="Caixa" class="st5">
		<g>
			<polyline class="st6" points="616.2,306.8 610.2,306.8 610.2,312.8 			"/>
			<line class="st7" x1="610.2" y1="325" x2="610.2" y2="760.9"/>
			<polyline class="st6" points="610.2,767 610.2,773 616.2,773 			"/>
			<line class="st8" x1="628.1" y1="773" x2="1265.8" y2="773"/>
			<polyline class="st6" points="1271.8,773 1277.8,773 1277.8,767 			"/>
			<line class="st7" x1="1277.8" y1="754.7" x2="1277.8" y2="318.9"/>
			<polyline class="st6" points="1277.8,312.8 1277.8,306.8 1271.8,306.8 			"/>
			<line class="st8" x1="1259.9" y1="306.8" x2="622.1" y2="306.8"/>
		</g>
	</g>
	<g id="Linhas" class="st1">
		<g id="Linha" class="st9">
			<g>
				<line class="st6" x1="705.6" y1="773" x2="705.6" y2="767"/>
				<line class="st7" x1="705.6" y1="754.7" x2="705.6" y2="318.9"/>
				<line class="st6" x1="705.6" y1="312.8" x2="705.6" y2="306.8"/>
			</g>
		</g>
		<g class="st9">
			<g>
				<line class="st6" x1="610.2" y1="394.2" x2="616.2" y2="394.2"/>
				<line class="st10" x1="628.1" y1="394.2" x2="1266" y2="394.3"/>
				<line class="st6" x1="1272" y1="394.3" x2="1278" y2="394.3"/>
			</g>
		</g>
		<g class="st9">
			<g>
				<line class="st6" x1="960.1" y1="307" x2="960.1" y2="313"/>
				<line class="st7" x1="960.1" y1="325.3" x2="960.1" y2="761.1"/>
				<line class="st6" x1="960.1" y1="767.3" x2="960.1" y2="773.3"/>
			</g>
		</g>
		<g class="st9">
			<g>
				<line class="st6" x1="610.2" y1="685.6" x2="616.2" y2="685.6"/>
				<line class="st11" x1="628.1" y1="685.6" x2="1263.3" y2="685.6"/>
				<line class="st6" x1="1269.2" y1="685.6" x2="1275.2" y2="685.6"/>
			</g>
		</g>
		<g class="st9">
			<g>
				<line class="st6" x1="769.1" y1="306.8" x2="769.1" y2="312.8"/>
				<line class="st7" x1="769.1" y1="325" x2="769.1" y2="760.9"/>
				<line class="st6" x1="769.1" y1="767" x2="769.1" y2="773"/>
			</g>
		</g>
		<g class="st9">
			<g>
				<line class="st6" x1="832.7" y1="306.8" x2="832.7" y2="312.8"/>
				<line class="st7" x1="832.7" y1="325" x2="832.7" y2="760.9"/>
				<line class="st6" x1="832.7" y1="767" x2="832.7" y2="773"/>
			</g>
		</g>
		<g class="st9">
			<g>
				<line class="st6" x1="896.4" y1="306.8" x2="896.4" y2="312.8"/>
				<line class="st7" x1="896.4" y1="325" x2="896.4" y2="760.9"/>
				<line class="st6" x1="896.4" y1="767" x2="896.4" y2="773"/>
			</g>
		</g>
		<g class="st9">
			<g>
				<line class="st6" x1="610.2" y1="452.5" x2="616.2" y2="452.5"/>
				<line class="st8" x1="628.1" y1="452.5" x2="1265.8" y2="452.5"/>
				<line class="st6" x1="1271.8" y1="452.5" x2="1277.8" y2="452.5"/>
			</g>
		</g>
		<g class="st9">
			<g>
				<line class="st6" x1="610.2" y1="510.7" x2="616.2" y2="510.7"/>
				<line class="st8" x1="628.1" y1="510.7" x2="1265.8" y2="510.7"/>
				<line class="st6" x1="1271.8" y1="510.7" x2="1277.8" y2="510.7"/>
			</g>
		</g>
		<g class="st9">
			<g>
				<line class="st6" x1="610.2" y1="627.3" x2="616.2" y2="627.3"/>
				<line class="st8" x1="628.1" y1="627.3" x2="1265.8" y2="627.3"/>
				<line class="st6" x1="1271.8" y1="627.3" x2="1277.8" y2="627.3"/>
			</g>
		</g>
		<g class="st9">
			<g>
				<line class="st6" x1="610.2" y1="569" x2="616.2" y2="569"/>
				<line class="st8" x1="628.1" y1="569" x2="1265.8" y2="569"/>
				<line class="st6" x1="1271.8" y1="569" x2="1277.8" y2="569"/>
			</g>
		</g>
		<g class="st9">
			<g>
				<line class="st6" x1="610.1" y1="773.1" x2="614.5" y2="769.1"/>
				<line class="st12" x1="623.3" y1="761.1" x2="1109.7" y2="315.2"/>
				<line class="st6" x1="1114.1" y1="311.2" x2="1118.5" y2="307.1"/>
			</g>
		</g>
		<g class="st9">
			<g>
				<line class="st6" x1="610.1" y1="685.6" x2="614.6" y2="681.5"/>
				<line class="st13" x1="623.5" y1="673.3" x2="1014.5" y2="314.9"/>
				<line class="st6" x1="1019" y1="310.8" x2="1023.4" y2="306.7"/>
			</g>
		</g>
	</g>
	<g id="Linhas_1_" class="st1">
		<line class="st14" x1="864.7" y1="773.1" x2="1278" y2="394.3"/>
		<line class="st14" x1="959.7" y1="773.2" x2="1278.1" y2="481.6"/>
		<line id="Linha_1_" class="st14" x1="610.2" y1="743.9" x2="1277.8" y2="743.9"/>
	</g>
</g>
<g>
	<polygon class="st15" points="705.6,598.2 769.1,539.9 769.1,452.5 864.5,452.5 928.8,394.2 705.6,394.2 	"/>
	<polygon class="st15" points="1087.3,569 1182.7,569 991.9,743.8 896.5,743.8 896.4,685.6 705.7,685.6 769.3,627.3 896.5,627.3 
		896.1,569.2 832.6,569.2 896.1,510.7 960.1,510.7 960.1,685.6 	"/>
</g>
<g id="Cores_1_">
	<g>
		<polygon class="st15" points="705.6,598.2 769.1,539.9 705.6,394.2 		"/>
		<polygon class="st16" points="769.1,539.9 705.6,394.2 769.1,394.2 		"/>
		<polygon class="st17" points="769.1,394.2 864.5,452.5 928.8,394.2 		"/>
		<polygon class="st18" points="769.1,394.2 769.1,452.5 864.5,452.5 		"/>
		<polygon class="st19" points="705.7,685.6 896.4,627.3 769.3,627.3 		"/>
		<polygon class="st17" points="896.4,627.3 896.4,685.6 705.7,685.6 		"/>
		<polygon class="st18" points="896.5,743.8 960.1,510.7 896.1,510.7 		"/>
		<polygon class="st19" points="832.6,569.2 896.1,510.7 896.2,569.2 		"/>
		<polygon class="st17" points="960.1,510.7 960.1,685.6 896.5,743.8 		"/>
		<polygon class="st16" points="896.5,743.8 1087.3,569 991.9,743.8 		"/>
		<polygon class="st15" points="1087.3,569 1182.7,569 991.9,743.8 		"/>
	</g>
</g>
</svg>
